<svg xmlns="http://www.w3.org/2000/svg" xmlns:xlink="http://www.w3.org/1999/xlink" width="500" zoomAndPan="magnify"
    viewBox="0 0 375 374.999991" height="500" preserveAspectRatio="xMidYMid meet" version="1.0">
    <defs>
        <clipPath id="04b34ff8af">
            <path d="M 59.210938 58 L 311 58 L 311 330.390625 L 59.210938 330.390625 Z M 59.210938 58 "
                clip-rule="nonzero" />
        </clipPath>
    </defs>
    <path fill="#1ED891"
        d="M 230.238281 159.121094 C 235.097656 163.933594 242.929688 163.894531 247.738281 159.042969 C 252.550781 154.191406 252.511719 146.359375 247.660156 141.546875 C 218.617188 112.777344 171.589844 112.988281 142.816406 142.023438 C 114.042969 171.058594 114.261719 218.082031 143.296875 246.851562 C 157.816406 261.234375 176.828125 268.371094 195.816406 268.285156 C 214.800781 268.203125 233.753906 260.886719 248.140625 246.371094 C 252.953125 241.519531 252.914062 233.6875 248.0625 228.875 C 243.210938 224.070312 235.375 224.105469 230.5625 228.957031 C 211.394531 248.292969 180.0625 248.4375 160.71875 229.273438 C 141.378906 210.105469 141.230469 178.777344 160.402344 159.433594 C 179.566406 140.101562 210.894531 139.953125 230.238281 159.121094 Z M 230.238281 159.121094 "
        fill-opacity="1" fill-rule="nonzero" />
    <g clip-path="url(#04b34ff8af)">
        <path fill="#1ED891"
            d="M 310.078125 246.160156 C 310.007812 229.636719 303.5 214.132812 291.761719 202.503906 C 286.914062 197.703125 286.882812 189.851562 291.683594 185.007812 C 315.6875 160.78125 315.507812 121.535156 291.277344 97.535156 C 237.972656 44.71875 151.617188 45.109375 98.792969 98.417969 C 73.207031 124.238281 59.199219 158.472656 59.371094 194.824219 C 59.535156 231.175781 73.847656 265.285156 99.675781 290.867188 C 126.332031 317.277344 161.242188 330.378906 196.097656 330.222656 C 230.949219 330.0625 265.742188 316.636719 292.15625 289.984375 C 303.792969 278.25 310.152344 262.683594 310.078125 246.160156 Z M 274.582031 272.570312 C 231.367188 316.179688 160.714844 316.503906 117.09375 273.292969 C 95.964844 252.359375 84.253906 224.453125 84.117188 194.710938 C 83.980469 164.96875 95.4375 136.957031 116.371094 115.828125 C 159.585938 72.21875 230.238281 71.894531 273.859375 115.105469 C 288.402344 129.511719 288.507812 153.058594 274.097656 167.589844 C 259.695312 182.121094 259.804688 205.671875 274.339844 220.078125 C 281.378906 227.054688 285.28125 236.363281 285.328125 246.273438 C 285.378906 256.1875 281.5625 265.527344 274.582031 272.570312 "
            fill-opacity="1" fill-rule="nonzero" />
    </g>
    <path fill="#1ED891"
        d="M 193.679688 214.296875 C 193.019531 214.296875 192.363281 214.265625 191.707031 214.203125 C 191.054688 214.136719 190.402344 214.039062 189.757812 213.914062 C 189.113281 213.785156 188.472656 213.625 187.84375 213.433594 C 187.214844 213.242188 186.59375 213.019531 185.984375 212.769531 C 185.378906 212.515625 184.78125 212.234375 184.203125 211.925781 C 183.621094 211.613281 183.058594 211.277344 182.511719 210.910156 C 181.960938 210.546875 181.433594 210.152344 180.925781 209.734375 C 180.417969 209.320312 179.929688 208.875 179.464844 208.410156 C 179 207.945312 178.558594 207.457031 178.140625 206.949219 C 177.722656 206.441406 177.328125 205.914062 176.964844 205.367188 C 176.597656 204.816406 176.261719 204.253906 175.949219 203.671875 C 175.640625 203.09375 175.359375 202.5 175.105469 201.890625 C 174.855469 201.28125 174.632812 200.664062 174.441406 200.03125 C 174.25 199.402344 174.089844 198.765625 173.960938 198.121094 C 173.832031 197.472656 173.738281 196.824219 173.671875 196.167969 C 173.609375 195.511719 173.574219 194.855469 173.574219 194.199219 C 173.574219 193.539062 173.609375 192.882812 173.671875 192.226562 C 173.738281 191.574219 173.832031 190.921875 173.960938 190.277344 C 174.089844 189.632812 174.25 188.992188 174.441406 188.363281 C 174.632812 187.734375 174.855469 187.113281 175.105469 186.507812 C 175.359375 185.898438 175.640625 185.304688 175.949219 184.722656 C 176.261719 184.140625 176.597656 183.578125 176.964844 183.03125 C 177.328125 182.484375 177.722656 181.957031 178.140625 181.445312 C 178.558594 180.9375 179 180.449219 179.464844 179.984375 C 179.929688 179.519531 180.417969 179.078125 180.925781 178.660156 C 181.433594 178.242188 181.960938 177.851562 182.511719 177.484375 C 183.058594 177.121094 183.621094 176.78125 184.203125 176.472656 C 184.78125 176.160156 185.378906 175.878906 185.984375 175.628906 C 186.59375 175.375 187.214844 175.152344 187.84375 174.964844 C 188.472656 174.773438 189.113281 174.613281 189.757812 174.484375 C 190.402344 174.355469 191.054688 174.257812 191.707031 174.195312 C 192.363281 174.128906 193.019531 174.097656 193.679688 174.097656 C 194.335938 174.097656 194.996094 174.128906 195.648438 174.195312 C 196.304688 174.257812 196.957031 174.355469 197.601562 174.484375 C 198.246094 174.613281 198.886719 174.773438 199.515625 174.964844 C 200.144531 175.152344 200.765625 175.375 201.371094 175.628906 C 201.980469 175.878906 202.574219 176.160156 203.15625 176.472656 C 203.738281 176.78125 204.300781 177.121094 204.847656 177.484375 C 205.394531 177.851562 205.925781 178.242188 206.433594 178.660156 C 206.941406 179.078125 207.429688 179.519531 207.894531 179.984375 C 208.359375 180.449219 208.800781 180.9375 209.21875 181.445312 C 209.636719 181.957031 210.027344 182.484375 210.394531 183.03125 C 210.761719 183.578125 211.097656 184.140625 211.410156 184.722656 C 211.71875 185.304688 212 185.898438 212.253906 186.507812 C 212.503906 187.113281 212.726562 187.734375 212.917969 188.363281 C 213.109375 188.992188 213.269531 189.632812 213.398438 190.277344 C 213.523438 190.921875 213.621094 191.574219 213.6875 192.226562 C 213.75 192.882812 213.78125 193.539062 213.78125 194.199219 C 213.78125 194.855469 213.75 195.511719 213.6875 196.167969 C 213.621094 196.824219 213.523438 197.472656 213.398438 198.121094 C 213.269531 198.765625 213.109375 199.402344 212.917969 200.03125 C 212.726562 200.664062 212.503906 201.28125 212.253906 201.890625 C 212 202.5 211.71875 203.09375 211.410156 203.671875 C 211.097656 204.253906 210.761719 204.816406 210.394531 205.367188 C 210.027344 205.914062 209.636719 206.441406 209.21875 206.949219 C 208.800781 207.457031 208.359375 207.945312 207.894531 208.410156 C 207.429688 208.875 206.941406 209.320312 206.433594 209.734375 C 205.925781 210.152344 205.394531 210.546875 204.847656 210.910156 C 204.300781 211.277344 203.738281 211.613281 203.15625 211.925781 C 202.574219 212.234375 201.980469 212.515625 201.371094 212.769531 C 200.765625 213.019531 200.144531 213.242188 199.515625 213.433594 C 198.886719 213.625 198.246094 213.785156 197.601562 213.914062 C 196.957031 214.039062 196.304688 214.136719 195.648438 214.203125 C 194.996094 214.265625 194.335938 214.296875 193.679688 214.296875 Z M 193.679688 214.296875 "
        fill-opacity="1" fill-rule="nonzero" />
</svg>